<svg width="60" height="60" viewBox="0 0 60 60" fill="none" xmlns="http://www.w3.org/2000/svg">
<path fill-rule="evenodd" clip-rule="evenodd" d="M37.7612 37.8995C37.6693 38.0075 37.6118 38.1348 37.497 38.3895C37.0256 39.4348 36.619 40.5062 36.2789 41.5976C32.1744 42.7496 27.8255 42.7495 23.721 41.5974C23.381 40.5061 22.9744 39.4347 22.503 38.3895C22.3882 38.1348 22.3307 38.0075 22.2388 37.8995C22.1469 37.7916 22.0127 37.703 21.7444 37.5258C17.6809 34.8421 15 30.2341 15 25C15 16.7157 21.7157 10 30 10C38.2843 10 45 16.7157 45 25C45 30.2341 42.3191 34.8421 38.2556 37.5258C37.9873 37.703 37.8531 37.7916 37.7612 37.8995ZM24.314 43.8129C24.6784 45.4362 24.8998 47.0929 24.973 48.7643C25.0002 49.3869 25.0139 49.6982 25.162 49.9267C25.3102 50.1551 25.5753 50.2877 26.1056 50.5528L28.2111 51.6056C29.3373 52.1686 30.6627 52.1686 31.7889 51.6056L33.8944 50.5528C34.4247 50.2877 34.6898 50.1551 34.838 49.9267C34.9861 49.6982 34.9998 49.3869 35.027 48.7643C35.1002 47.093 35.3216 45.4363 35.686 43.8131C31.9462 44.6777 28.0538 44.6776 24.314 43.8129Z" fill="white"/>
</svg>
