<svg width="35" height="43" viewBox="0 0 35 43" fill="none" xmlns="http://www.w3.org/2000/svg">
<path fill-rule="evenodd" clip-rule="evenodd" d="M0.5 8.25C0.5 4.47876 0.5 2.59315 1.67157 1.42157C2.84315 0.25 4.72876 0.25 8.5 0.25H26.5C30.2712 0.25 32.1569 0.25 33.3284 1.42157C34.5 2.59315 34.5 4.47876 34.5 8.25V27.4592C33.106 26.1658 31.2391 25.375 29.1875 25.375C24.8728 25.375 21.375 28.8728 21.375 33.1875C21.375 37.5022 24.8728 41 29.1875 41C30.4328 41 31.6101 40.7086 32.6548 40.1903L33.6554 41.191C33.5581 41.3286 33.4495 41.4573 33.3284 41.5784C32.1569 42.75 30.2712 42.75 26.5 42.75H8.5C4.72876 42.75 2.84315 42.75 1.67157 41.5784C0.5 40.4069 0.5 38.5212 0.5 34.75V8.25ZM29.1875 30.375C27.6342 30.375 26.375 31.6342 26.375 33.1875C26.375 34.7408 27.6342 36 29.1875 36C30.7408 36 32 34.7408 32 33.1875C32 31.6342 30.7408 30.375 29.1875 30.375ZM9 7.75C8.44771 7.75 8 8.19772 8 8.75C8 9.30229 8.44771 9.75 9 9.75H17.5C18.0523 9.75 18.5 9.30229 18.5 8.75C18.5 8.19772 18.0523 7.75 17.5 7.75H9ZM9 16.25C8.44771 16.25 8 16.6977 8 17.25C8 17.8023 8.44771 18.25 9 18.25H21.75C22.3023 18.25 22.75 17.8023 22.75 17.25C22.75 16.6977 22.3023 16.25 21.75 16.25L9 16.25ZM9 24.75C8.44771 24.75 8 25.1977 8 25.75C8 26.3023 8.44771 26.75 9 26.75H15.375C15.9273 26.75 16.375 26.3023 16.375 25.75C16.375 25.1977 15.9273 24.75 15.375 24.75H9Z" fill="white"/>
</svg>
